<svg width="9" height="11" viewBox="0 0 9 11" fill="none" xmlns="http://www.w3.org/2000/svg">
<path d="M7.875 11C8.17337 11 8.45952 10.8841 8.6705 10.6778C8.88147 10.4715 9 10.1917 9 9.9V1.1C9 0.808262 8.88147 0.528472 8.6705 0.322183C8.45952 0.115892 8.17337 0 7.875 0H4.5V3.85L3.09375 3.025L1.6875 3.85V0H1.125C0.826631 0 0.540483 0.115892 0.329505 0.322183C0.118526 0.528472 0 0.808262 0 1.1V9.9C0 10.1917 0.118526 10.4715 0.329505 10.6778C0.540483 10.8841 0.826631 11 1.125 11H7.875Z" fill="black"/>
</svg>
