<svg width="11" height="12" viewBox="0 0 11 12" fill="none" xmlns="http://www.w3.org/2000/svg">
<path d="M3.66667 5.4H2.44444V6.6H3.66667V5.4ZM6.11111 5.4H4.88889V6.6H6.11111V5.4ZM8.55556 5.4H7.33333V6.6H8.55556V5.4ZM9.77778 1.2H9.16667V0H7.94444V1.2H3.05556V0H1.83333V1.2H1.22222C0.898069 1.2 0.587192 1.32643 0.357981 1.55147C0.128769 1.77652 0 2.08174 0 2.4V10.8C0 11.1183 0.128769 11.4235 0.357981 11.6485C0.587192 11.8736 0.898069 12 1.22222 12H9.77778C10.1019 12 10.4128 11.8736 10.642 11.6485C10.8712 11.4235 11 11.1183 11 10.8V2.4C11 2.08174 10.8712 1.77652 10.642 1.55147C10.4128 1.32643 10.1019 1.2 9.77778 1.2ZM9.77778 10.8H1.22222V4.2H9.77778V10.8Z" fill="black"/>
</svg>
